# xmcd CD database file
#
# Track frame offsets:
#	150
#	15265
#	35060
#	53587
#
# Disc length: 944 seconds
#
# Revision: 0
# Processed by: cddbd v1.5.1PL0 Copyright (c) Steve Scherf et al.
# Submitted via: CDex 1.51
#
DISCID=2403ae04
DTITLE=Waive - キミノヒトミニ恋シテル。
DYEAR=2002
DGENRE=Japanese Pop
TTITLE0=キミノヒトミニ恋イシテル。
TTITLE1=わがままロミオ
TTITLE2=heart breaker
TTITLE3=Message〜小さな手紙〜
EXTD=YEAR: 2002
EXTT0=
EXTT1=
EXTT2=
EXTT3=
PLAYORDER=
